<svg xmlns="http://www.w3.org/2000/svg" fill="none" viewBox="0 0 128 128"><mask id="a" fill="#fff"><path d="M84.273 112.39c.429-.229.867-.439 1.278-.697 2.817-1.624 5.41-3.535 7.807-5.657l.96-.888c.308-.306.645-.583.933-.899l.905-.936.448-.468.43-.478c.475-.545 1.025-1.098 1.399-1.624.447-.688.951-1.309 1.482-1.91.387-.47.798-.916 1.231-1.339l.449-.44 1.277-1.289.317-.335.308-.343.607-.698.634-.716.597-.717.597-.726c.206-.24.41-.478.588-.736.383-.497.764-1.013 1.138-1.557.187-.268.355-.564.531-.86.177-.287.345-.602.513-.908.374-.66.746-1.252 1.11-1.911l.42-.783c.14-.249.262-.516.392-.784l.774-1.596c.355-.812.682-1.638.98-2.474.093-.277.168-.564.242-.841l.485-1.71.41-1.72.196-.88.15-.888c.305-1.836.373-3.706.205-5.56a14.862 14.862 0 0 0-.233-1.53 10.167 10.167 0 0 0-.411-1.3c-.634-1.585-1.212-1.958-1.865-.333a15.36 15.36 0 0 0-.438 1.232l-.104.335-.111.324a11.79 11.79 0 0 0-.206.67 14.757 14.757 0 0 0-.326 1.547 17.377 17.377 0 0 0-.28 1.94 9.431 9.431 0 0 1-.112.898l-.139.888-.14.899-.187.888-.205.88-.093.448-.047.22-.065.22-.485 1.739-.094.325c-.114.32-.236.64-.363.955-.159.411-.336.812-.513 1.147a15.707 15.707 0 0 0-1.027 2.226c-.344.764-.643 1.529-.988 2.264a66.333 66.333 0 0 0-.933 1.892 53.65 53.65 0 0 1-1.027 1.844 65.584 65.584 0 0 1-3.637 5.16l-.467.621c-.14.21-.316.392-.466.592l-.98 1.128c-.158.19-.344.353-.512.535l-.532.516c-.354.344-.69.697-1.082 1.013l-.97.831c-.158.134-.317.287-.485.411l-.504.401-.998.812c-.159.144-.336.268-.504.402l-.513.391a49.57 49.57 0 0 1-4.925 3.459c-.868.497-1.716 1.032-2.612 1.472l-.662.344c-.224.114-.439.238-.672.334l-1.362.631c-1.399.621-2.873 1.06-4.066 1.815a2.428 2.428 0 0 1-.43.191l-.27.095-.261.087c-.56.172-1.11.363-1.66.553l-.84.259-.858.229-.84.239-.858.172-.858.153c-.28.048-.56.105-.849.124l-1.306.134-.653.067c-.214.029-.429.038-.653.057l-1.296.096-.653.048-.653.018-1.288.048-.326.019h-.103.038-.196l-.7-.009-1.399-.02h-.345l-.308-.028-.625-.047-.84-.058-.42-.019-.428-.048-1.745-.21c-.28-.029-.569-.096-.858-.134l-.858-.143-.867-.144-.85-.19-.895-.192-.447-.096c-.15-.028-.299-.076-.439-.114l-1.772-.478c-1.157-.382-2.332-.735-3.46-1.194a47.007 47.007 0 0 1-6.661-3.134 27.036 27.036 0 0 1-5.951-4.673c-1.717-1.814-3.452-3.592-5.084-5.274a50.338 50.338 0 0 1-5.56-6.898l-.82-1.28-.41-.65-.374-.66-.765-1.328-.7-1.366-.344-.678-.317-.698-.635-1.404c-.205-.478-.373-.956-.569-1.434-.186-.477-.392-.955-.55-1.442-.112-.344-.187-.707-.299-1.051l-.298-.956-.252-.974c-.159-.64-.354-1.28-.476-1.94l-.252-1.118-.12-.554c-.047-.182-.075-.373-.113-.554l-.205-1.118-.112-.564-.047-.287-.037-.277c-.1-.762-.184-1.527-.252-2.293a38.349 38.349 0 0 1-.018-2.398v-.124.047-.085l.028-.22.037-.43.056-.889.037-.898c0-.153.019-.287.037-.43l.028-.41a24.84 24.84 0 0 0 .056-1.673c.019-.573.028-1.127 0-1.681 0-.373.094-.927.159-1.367l.187-1.7.065-.421.065-.43.13-.86c.131-1.147.318-2.264.3-3.382-.44.516-.868.745-1.185 1.471-.215.45-.374.908-.56 1.338l-.541 1.309-.252.65-.243.668-.475 1.338a33.62 33.62 0 0 0-.653 2.58c-.15.941-.272 1.888-.364 2.838l-.074 1.414-.02.716-.018.363v.402l.047 1.462c.018.496.028.984.084 1.471l.205 2.198.336 2.168.084.545.112.545.214 1.07c.075.353.14.716.224 1.07l.261 1.07c.299 1.338.7 2.637 1.082 3.946l.672 1.94.168.478.186.477.383.937c.149.353.28.707.448 1.05l.503 1.023.504 1.022.55.994c.373.67.71 1.347 1.092 2.007.186.334.373.669.54 1.013l.262.525.28.506c.149.287.429.612.653.908a93.969 93.969 0 0 1 4.915 7.109c.122.172.402.535.765.984l.616.726.709.764.718.765.336.353.336.315.933.861a86.297 86.297 0 0 0 4.253 3.296l.383.287.391.258.765.506.774.468c.262.144.541.258.821.383.299.114.634.277.98.449.336.181.68.381 1.026.534a35.19 35.19 0 0 0 9.253 3.421c.597.105 1.231.258 1.875.43.326.096.653.162.98.239l.979.229a51.284 51.284 0 0 0 8.89 1.338l1.632.067.41.01.205.009h.215l.83-.019 1.642-.029 1.65-.104.822-.048.82-.097 1.642-.162c.28-.028.541-.076.821-.114l.812-.115c.54-.086 1.09-.133 1.623-.249.26-.047.54-.133.811-.2l.71-.201c.232-.067.465-.133.699-.22l1.399-.468.69-.229.69-.268 1.362-.544.345-.133.336-.153.662-.307 1.334-.611 1.297-.669h-.01Zm31.556-63.205a7.045 7.045 0 0 1-.522-1.022c-.181-.392-.349-.79-.504-1.194l-.485-1.233a15.19 15.19 0 0 0-.56-1.108 8.44 8.44 0 0 1-.662-1.443 4.532 4.532 0 0 1-.299-1.242l-.727-.975a5.78 5.78 0 0 0-.373-.468l-.374-.449-.718-.87-.345-.42-.372-.401a11.722 11.722 0 0 1-.943-1.147c-.148-.203-.291-.41-.429-.62-.15-.202-.289-.412-.429-.631-.279-.436-.54-.882-.784-1.338-.121-.239-.261-.459-.391-.698-.131-.229-.253-.477-.374-.716-.298-.554-.559-1.147-.951-1.672l-1.082-1.529-1.166-1.481-.588-.726-.615-.707-.616-.707c-.215-.24-.41-.478-.634-.698l-1.549-1.624a86.837 86.837 0 0 0-1.642-1.529 4.519 4.519 0 0 0-.4-.325 81.258 81.258 0 0 0-.439-.305 7.072 7.072 0 0 1-.783-.593 7.65 7.65 0 0 0-2.286-1.643c-.242-.096-.784-.459-.933-.602-.914-.908-1.987-1.328-2.929-1.758-.68-.32-1.348-.664-2.005-1.032l-1.465-.85c-.494-.268-1.007-.517-1.51-.775-.999-.535-2.053-.955-3.098-1.404-.317-.153-.652-.258-.979-.373l-.989-.334c-.336-.105-.662-.23-.998-.316l-1.007-.286c-1.306-.392-2.547-.764-3.965-1.07-.744-.12-1.49-.229-2.238-.325a5.812 5.812 0 0 0-.7-.077 24.743 24.743 0 0 0-2.51-.047c-.764.057-1.445.162-2.005.324-.263.07-.52.166-.765.287a2.944 2.944 0 0 0-.56.401c-.14.125-.372.249-.652.354-1.073.41-.681.822.28 1.232.242.106.587.201.886.306.298.115.54.23.625.344.15.22.485.383.914.478.438.124.942.182 1.446.296.589.123 1.18.238 1.772.344l.439.096.438.095.886.191.886.182c.595.14 1.192.267 1.791.382.299.067.606.115.905.191l1.716.401c.568.151 1.128.33 1.68.535l.596.22.588.22c.392.163.793.306 1.185.459l.587.22.29.095.289.124 1.166.478c.774.306 1.53.669 2.294 1.032l.56.287c.196.085.373.19.56.296.373.21.745.42 1.119.65a64.926 64.926 0 0 1 7.76 5.322c.253.21.523.41.766.64.242.229.476.458.671.688l.83.936c.27.306.533.621.803.908.534.575 1.117 1.1 1.744 1.567.467.573.97 1.118 1.418 1.672.233.286.467.544.709.812l.345.401c.121.124.223.268.345.401l1.343 1.625c.489.641.97 1.288 1.446 1.94a9.676 9.676 0 0 1 .765 1.663c.84 2.368 1.958 4.93 2.919 7.432a38.838 38.838 0 0 1 2.426 8.915c.046.43.121.841.177 1.252.094.78.225 1.555.392 2.322.094.363.158.735.261 1.089.122.459.233.984.345 1.5.103.506.187 1.003.308 1.395.56 1.816 1.586 1.892 2.155.191.14-.41.316-.716.42-1.242l.223-1.108c.075-.354.149-.707.215-1.1.061-.43.092-.864.093-1.299a12.297 12.297 0 0 0-.177-1.69 5.69 5.69 0 0 0 0-.784 9.662 9.662 0 0 0-.093-.832 39.187 39.187 0 0 0-.299-1.72c-.047-.286-.121-.573-.177-.86a15.92 15.92 0 0 1-.159-.84 8.284 8.284 0 0 1-.102-1.558 5.766 5.766 0 0 0-.42-1.404v.01Zm-93.96-12.813a14.426 14.426 0 0 0 1.679-1.7c.299-.316.597-.65.896-1.013a36.837 36.837 0 0 1 6.146-5.828c.467-.345.99-.717 1.493-1.118.243-.201.504-.383.746-.574.233-.19.467-.382.663-.573l.569-.535.587-.506c.392-.344.784-.679 1.157-1.032.38-.32.753-.648 1.12-.985.363-.325.69-.668 1.025-.984 1.39-1.376 1.642-2.37.373-2.388a9.242 9.242 0 0 0-1.837.162c-.345.057-.681.162-1.036.268-.577.183-1.146.39-1.707.62l-.587.278c-.418.208-.832.424-1.24.65-.206.114-.43.229-.645.363l-.652.42-1.334.917c-2.65 1.95-4.85 4.3-5.924 6.727-.123.276-.257.547-.4.812l-.243.43-.233.449a28.07 28.07 0 0 0-.924 1.844c-.12.313-.226.632-.317.956-.215.783-.224 1.366.047 1.7.102.134-.14.841-.224 1.338.27-.22.531-.45.802-.697Z"/></mask><path fill="#fff" stroke="#fff" stroke-width="2" d="M84.273 112.39c.429-.229.867-.439 1.278-.697 2.817-1.624 5.41-3.535 7.807-5.657l.96-.888c.308-.306.645-.583.933-.899l.905-.936.448-.468.43-.478c.475-.545 1.025-1.098 1.399-1.624.447-.688.951-1.309 1.482-1.91.387-.47.798-.916 1.231-1.339l.449-.44 1.277-1.289.317-.335.308-.343.607-.698.634-.716.597-.717.597-.726c.206-.24.41-.478.588-.736.383-.497.764-1.013 1.138-1.557.187-.268.355-.564.531-.86.177-.287.345-.602.513-.908.374-.66.746-1.252 1.11-1.911l.42-.783c.14-.249.262-.516.392-.784l.774-1.596c.355-.812.682-1.638.98-2.474.093-.277.168-.564.242-.841l.485-1.71.41-1.72.196-.88.15-.888c.305-1.836.373-3.706.205-5.56a14.862 14.862 0 0 0-.233-1.53 10.167 10.167 0 0 0-.411-1.3c-.634-1.585-1.212-1.958-1.865-.333a15.36 15.36 0 0 0-.438 1.232l-.104.335-.111.324a11.79 11.79 0 0 0-.206.67 14.757 14.757 0 0 0-.326 1.547 17.377 17.377 0 0 0-.28 1.94 9.431 9.431 0 0 1-.112.898l-.139.888-.14.899-.187.888-.205.88-.093.448-.047.22-.065.22-.485 1.739-.094.325c-.114.32-.236.64-.363.955-.159.411-.336.812-.513 1.147a15.707 15.707 0 0 0-1.027 2.226c-.344.764-.643 1.529-.988 2.264a66.333 66.333 0 0 0-.933 1.892 53.65 53.65 0 0 1-1.027 1.844 65.584 65.584 0 0 1-3.637 5.16l-.467.621c-.14.21-.316.392-.466.592l-.98 1.128c-.158.19-.344.353-.512.535l-.532.516c-.354.344-.69.697-1.082 1.013l-.97.831c-.158.134-.317.287-.485.411l-.504.401-.998.812c-.159.144-.336.268-.504.402l-.513.391a49.57 49.57 0 0 1-4.925 3.459c-.868.497-1.716 1.032-2.612 1.472l-.662.344c-.224.114-.439.238-.672.334l-1.362.631c-1.399.621-2.873 1.06-4.066 1.815a2.428 2.428 0 0 1-.43.191l-.27.095-.261.087c-.56.172-1.11.363-1.66.553l-.84.259-.858.229-.84.239-.858.172-.858.153c-.28.048-.56.105-.849.124l-1.306.134-.653.067c-.214.029-.429.038-.653.057l-1.296.096-.653.048-.653.018-1.288.048-.326.019h-.103.038-.196l-.7-.009-1.399-.02h-.345l-.308-.028-.625-.047-.84-.058-.42-.019-.428-.048-1.745-.21c-.28-.029-.569-.096-.858-.134l-.858-.143-.867-.144-.85-.19-.895-.192-.447-.096c-.15-.028-.299-.076-.439-.114l-1.772-.478c-1.157-.382-2.332-.735-3.46-1.194a47.007 47.007 0 0 1-6.661-3.134 27.036 27.036 0 0 1-5.951-4.673c-1.717-1.814-3.452-3.592-5.084-5.274a50.338 50.338 0 0 1-5.56-6.898l-.82-1.28-.41-.65-.374-.66-.765-1.328-.7-1.366-.344-.678-.317-.698-.635-1.404c-.205-.478-.373-.956-.569-1.434-.186-.477-.392-.955-.55-1.442-.112-.344-.187-.707-.299-1.051l-.298-.956-.252-.974c-.159-.64-.354-1.28-.476-1.94l-.252-1.118-.12-.554c-.047-.182-.075-.373-.113-.554l-.205-1.118-.112-.564-.047-.287-.037-.277c-.1-.762-.184-1.527-.252-2.293a38.349 38.349 0 0 1-.018-2.398v-.124.047-.085l.028-.22.037-.43.056-.889.037-.898c0-.153.019-.287.037-.43l.028-.41a24.84 24.84 0 0 0 .056-1.673c.019-.573.028-1.127 0-1.681 0-.373.094-.927.159-1.367l.187-1.7.065-.421.065-.43.13-.86c.131-1.147.318-2.264.3-3.382-.44.516-.868.745-1.185 1.471-.215.45-.374.908-.56 1.338l-.541 1.309-.252.65-.243.668-.475 1.338a33.62 33.62 0 0 0-.653 2.58c-.15.941-.272 1.888-.364 2.838l-.074 1.414-.02.716-.018.363v.402l.047 1.462c.018.496.028.984.084 1.471l.205 2.198.336 2.168.084.545.112.545.214 1.07c.075.353.14.716.224 1.07l.261 1.07c.299 1.338.7 2.637 1.082 3.946l.672 1.94.168.478.186.477.383.937c.149.353.28.707.448 1.05l.503 1.023.504 1.022.55.994c.373.67.71 1.347 1.092 2.007.186.334.373.669.54 1.013l.262.525.28.506c.149.287.429.612.653.908a93.969 93.969 0 0 1 4.915 7.109c.122.172.402.535.765.984l.616.726.709.764.718.765.336.353.336.315.933.861a86.297 86.297 0 0 0 4.253 3.296l.383.287.391.258.765.506.774.468c.262.144.541.258.821.383.299.114.634.277.98.449.336.181.68.381 1.026.534a35.19 35.19 0 0 0 9.253 3.421c.597.105 1.231.258 1.875.43.326.096.653.162.98.239l.979.229a51.284 51.284 0 0 0 8.89 1.338l1.632.067.41.01.205.009h.215l.83-.019 1.642-.029 1.65-.104.822-.048.82-.097 1.642-.162c.28-.028.541-.076.821-.114l.812-.115c.54-.086 1.09-.133 1.623-.249.26-.047.54-.133.811-.2l.71-.201c.232-.067.465-.133.699-.22l1.399-.468.69-.229.69-.268 1.362-.544.345-.133.336-.153.662-.307 1.334-.611 1.297-.669h-.01Zm31.556-63.205a7.045 7.045 0 0 1-.522-1.022c-.181-.392-.349-.79-.504-1.194l-.485-1.233a15.19 15.19 0 0 0-.56-1.108 8.44 8.44 0 0 1-.662-1.443 4.532 4.532 0 0 1-.299-1.242l-.727-.975a5.78 5.78 0 0 0-.373-.468l-.374-.449-.718-.87-.345-.42-.372-.401a11.722 11.722 0 0 1-.943-1.147c-.148-.203-.291-.41-.429-.62-.15-.202-.289-.412-.429-.631-.279-.436-.54-.882-.784-1.338-.121-.239-.261-.459-.391-.698-.131-.229-.253-.477-.374-.716-.298-.554-.559-1.147-.951-1.672l-1.082-1.529-1.166-1.481-.588-.726-.615-.707-.616-.707c-.215-.24-.41-.478-.634-.698l-1.549-1.624a86.837 86.837 0 0 0-1.642-1.529 4.519 4.519 0 0 0-.4-.325 81.258 81.258 0 0 0-.439-.305 7.072 7.072 0 0 1-.783-.593 7.65 7.65 0 0 0-2.286-1.643c-.242-.096-.784-.459-.933-.602-.914-.908-1.987-1.328-2.929-1.758-.68-.32-1.348-.664-2.005-1.032l-1.465-.85c-.494-.268-1.007-.517-1.51-.775-.999-.535-2.053-.955-3.098-1.404-.317-.153-.652-.258-.979-.373l-.989-.334c-.336-.105-.662-.23-.998-.316l-1.007-.286c-1.306-.392-2.547-.764-3.965-1.07-.744-.12-1.49-.229-2.238-.325a5.812 5.812 0 0 0-.7-.077 24.743 24.743 0 0 0-2.51-.047c-.764.057-1.445.162-2.005.324-.263.07-.52.166-.765.287a2.944 2.944 0 0 0-.56.401c-.14.125-.372.249-.652.354-1.073.41-.681.822.28 1.232.242.106.587.201.886.306.298.115.54.23.625.344.15.22.485.383.914.478.438.124.942.182 1.446.296.589.123 1.18.238 1.772.344l.439.096.438.095.886.191.886.182c.595.14 1.192.267 1.791.382.299.067.606.115.905.191l1.716.401c.568.151 1.128.33 1.68.535l.596.22.588.22c.392.163.793.306 1.185.459l.587.22.29.095.289.124 1.166.478c.774.306 1.53.669 2.294 1.032l.56.287c.196.085.373.19.56.296.373.21.745.42 1.119.65a64.926 64.926 0 0 1 7.76 5.322c.253.21.523.41.766.64.242.229.476.458.671.688l.83.936c.27.306.533.621.803.908.534.575 1.117 1.1 1.744 1.567.467.573.97 1.118 1.418 1.672.233.286.467.544.709.812l.345.401c.121.124.223.268.345.401l1.343 1.625c.489.641.97 1.288 1.446 1.94a9.676 9.676 0 0 1 .765 1.663c.84 2.368 1.958 4.93 2.919 7.432a38.838 38.838 0 0 1 2.426 8.915c.046.43.121.841.177 1.252.094.78.225 1.555.392 2.322.094.363.158.735.261 1.089.122.459.233.984.345 1.5.103.506.187 1.003.308 1.395.56 1.816 1.586 1.892 2.155.191.14-.41.316-.716.42-1.242l.223-1.108c.075-.354.149-.707.215-1.1.061-.43.092-.864.093-1.299a12.297 12.297 0 0 0-.177-1.69 5.69 5.69 0 0 0 0-.784 9.662 9.662 0 0 0-.093-.832 39.187 39.187 0 0 0-.299-1.72c-.047-.286-.121-.573-.177-.86a15.92 15.92 0 0 1-.159-.84 8.284 8.284 0 0 1-.102-1.558 5.766 5.766 0 0 0-.42-1.404v.01Zm-93.96-12.813a14.426 14.426 0 0 0 1.679-1.7c.299-.316.597-.65.896-1.013a36.837 36.837 0 0 1 6.146-5.828c.467-.345.99-.717 1.493-1.118.243-.201.504-.383.746-.574.233-.19.467-.382.663-.573l.569-.535.587-.506c.392-.344.784-.679 1.157-1.032.38-.32.753-.648 1.12-.985.363-.325.69-.668 1.025-.984 1.39-1.376 1.642-2.37.373-2.388a9.242 9.242 0 0 0-1.837.162c-.345.057-.681.162-1.036.268-.577.183-1.146.39-1.707.62l-.587.278c-.418.208-.832.424-1.24.65-.206.114-.43.229-.645.363l-.652.42-1.334.917c-2.65 1.95-4.85 4.3-5.924 6.727-.123.276-.257.547-.4.812l-.243.43-.233.449a28.07 28.07 0 0 0-.924 1.844c-.12.313-.226.632-.317.956-.215.783-.224 1.366.047 1.7.102.134-.14.841-.224 1.338.27-.22.531-.45.802-.697Z" mask="url(#a)"/><mask id="b" fill="#fff"><path d="M123.991 62.18a41.674 41.674 0 0 0-.018-1.06 20.615 20.615 0 0 0-.075-1.051c-.019-.344-.093-.688-.159-1.032-.078-.411-.14-.826-.187-1.242-.064-.44-.102-.889-.168-1.328a44.072 44.072 0 0 0-2.742-11.122 30.792 30.792 0 0 1-.792-2.083c-.122-.373-.28-.736-.411-1.099l-.411-1.089a62.805 62.805 0 0 0-4.495-9.42l-.999-1.616-.251-.401-.121-.2-.14-.21-.551-.784-1.082-1.567-1.166-1.52-.569-.764-.606-.726-1.213-1.471c-.205-.249-.429-.478-.634-.708l-.634-.707c-.42-.468-.831-.955-1.278-1.404a11.47 11.47 0 0 0-.7-.64l-.634-.564c-.215-.182-.42-.373-.653-.545l-1.306-1.05-.672-.517c-.214-.172-.448-.325-.68-.497l-1.363-.974-.344-.239c-.113-.086-.234-.153-.355-.23l-.7-.458-1.418-.889-1.445-.83c-.485-.259-.961-.555-1.456-.794a53.267 53.267 0 0 0-10.195-3.975l-1.427-.363-.71-.181-.354-.096-.373-.067-1.427-.286-.718-.134c-.233-.057-.476-.077-.718-.115l-1.222-.19-.597-.096a4.2 4.2 0 0 0-.56-.039 21.36 21.36 0 0 1-2.052-.153c-.224-.028-.439-.066-.672-.086a21.435 21.435 0 0 1-2.033-.315l-.681-.143-2.024-.363-.513-.096-.513-.057-1.036-.124-1.063-.134-1.054-.096-1.045-.095c-.345-.038-.7-.086-1.054-.096a62.768 62.768 0 0 0-2.164-.047c-.373-.01-.746.028-1.12.047l-1.175.096c-.84.067-1.623.095-2.462.19l-.98.106-.242.029-.243.038-.485.067-1.959.306c-.97.185-1.935.404-2.891.659-.93.325-1.862.637-2.799.936l-1.856.717-.933.372-.895.43a35.54 35.54 0 0 0-1.8.918 25.031 25.031 0 0 0-3.47 2.388c-.476.383-.905.765-1.279 1.147-.373.41-.69.803-.97 1.194-1.1 1.548-1.119 2.274.747 1.787.447-.115.904-.248 1.39-.41l.373-.135.354-.114c.819-.26 1.617-.582 2.388-.965a23.87 23.87 0 0 0 1.978-1.003c.289-.172.597-.316.904-.46l.915-.448.923-.44.942-.382.952-.382.475-.191.243-.096.233-.095 1.94-.65.355-.115.373-.095.746-.191c.46-.104.923-.187 1.39-.249a20.14 20.14 0 0 0 2.733-.478c.914-.162 1.828-.363 2.742-.506l2.36-.315a63.743 63.743 0 0 1 2.37-.2c2.397-.096 4.803.018 7.163.18l.859.048c.289 0 .578.058.858.086l1.679.21c.28.03.56.096.84.154l.82.162c.541.124 1.092.22 1.642.392l1.399.401c.233.067.466.115.7.191l.7.23c.7.23 1.402.453 2.107.668l.7.23c2.192.697 4.319 1.595 6.409 2.56 1.025.516 2.079.994 3.068 1.586l.746.42c.262.154.513.278.756.44l1.464.917c1.484.966 2.864 2.103 4.32 2.81.12.067.28.172.447.305l.261.192.242.21 1.586 1.27c.281.201.532.44.784.66l.774.669.756.688.718.716.699.726c.224.249.467.478.663.746l.979 1.184.485.593c.168.19.318.401.467.592l.933 1.204c.168.2.326.401.466.602l.448.621.885 1.242.225.296.056.077v.019h.009l.103.162.438.679.886 1.366c.065.105.158.23.215.334l.186.316.364.64.485.86.252.43.233.449.933 1.825c.158.306.29.621.429.936l.429.927.42.937.383.955.4.994.196.496.187.507.69 2.026c.215.687.401 1.375.606 2.063.215.688.355 1.395.532 2.093l.252 1.05c.046.173.075.345.112.526l.093.526.206 1.06c.064.354.149.707.186 1.061l.308 2.14.037.268.028.267.047.535.111 1.08c.085.717.094 1.462.113 2.217l.008 1.118c0 .382-.036.764-.055 1.137l-.066 1.118-.046.554-.065.544c-.095.709-.198 1.416-.308 2.122-.532 2.857-1.054 5.714-1.577 8.38a58.787 58.787 0 0 1-2.845 9.879l-.672 1.624-.344.812-.373.793-.746 1.596-.822 1.548-.41.783c-.139.258-.298.507-.447.765l-.896 1.51a5.66 5.66 0 0 1-.243.382l-.243.353-.484.745c-.326.478-.644.985-.998 1.453-.243.325-.523.64-.774.965-.234.306-.457.611-.7.907l-.737.861c-.495.582-.97 1.174-1.492 1.719l-.878.956-.438.478c-.14.162-.298.305-.447.468l-.905.907-.457.468-.224.23-.242.21a72.284 72.284 0 0 1-1.97 1.72 43.663 43.663 0 0 1-2.2 1.576l-1.642 1.004-.849.535-.41.248-.411.239c-.541.324-1.074.665-1.594 1.022-.532.344-1.074.689-1.568 1.052-.345.248-.915.506-1.372.735l-1.697.888-.429.221-.438.21-.877.42c-1.157.592-2.313 1.118-3.349 1.816.746.047 1.231.267 2.09.095.55-.095 1.063-.248 1.585-.363l1.54-.343c.251-.049.503-.125.746-.192l.755-.21 1.53-.44a38.053 38.053 0 0 0 2.77-1.079c.95-.464 1.886-.954 2.808-1.472.448-.277.905-.554 1.353-.85l.68-.43.336-.23.085-.048.064-.047.038-.029.168-.124 1.325-.984c.438-.334.886-.65 1.305-1.013l1.866-1.605 1.8-1.71.439-.43.429-.45.839-.898.858-.897.812-.938c1.026-1.136 1.969-2.359 2.929-3.563l1.353-1.882.336-.478.307-.478.625-.974c.233-.364.467-.727.681-1.109l.625-1.137.615-1.137.57-1.165c.372-.774.783-1.53 1.137-2.332l.589-1.175.298-.593.289-.592c.168-.334.298-.802.429-1.204 1.063-3.382 2.192-6.373 3.311-9.316.093-.22.225-.726.401-1.376l.271-1.05.242-1.176.234-1.175.093-.564.084-.525c.071-.483.133-.967.186-1.453.187-2.054.243-4.137.299-6.2l.009-.545v-.535h-.009Zm-14.309-30.47c-.009-.019-.019-.028 0 0ZM15.89 93.788c-.094-.354-.159-.669-.121-.803.093-.277-.01-.697-.187-1.175-.187-.487-.466-1.022-.69-1.577a96.122 96.122 0 0 0-.84-1.92l-.093-.239-.093-.248-.205-.488-.402-.974-.41-.975a46.583 46.583 0 0 0-.383-.993l-.4-.994c-.14-.335-.28-.66-.411-1.004l-.728-1.91a12.17 12.17 0 0 1-.307-.994 25.881 25.881 0 0 1-.27-.984l-.187-.717a9.944 9.944 0 0 1-.178-.717l-.336-1.433-.177-.716-.093-.354-.075-.363-.298-1.433c-.224-.946-.355-1.911-.504-2.876l-.112-.736-.084-.736a71.23 71.23 0 0 1-.121-1.49 75.364 75.364 0 0 1-.037-10.93c.028-.383.046-.765.093-1.147.065-.383.121-.755.205-1.09l.317-1.404c.103-.468.224-.917.308-1.367.093-.458.168-.907.224-1.356.056-.44.121-.88.14-1.328.224-.832.401-1.653.634-2.456l.299-1.194.14-.593.168-.583.652-2.33.756-2.313c.039-.11.079-.218.121-.325l.131-.287c.087-.181.18-.36.28-.535.19-.339.392-.67.606-.993 1.586-2.36 3.218-5.103 4.906-7.625a44.6 44.6 0 0 1 6.66-8.064c.364-.335.7-.67 1.027-.985a26.474 26.474 0 0 0 1.893-1.863c.299-.315.588-.62.859-.936.354-.401.774-.841 1.175-1.27.41-.412.82-.803 1.11-1.157 1.352-1.653.84-2.58-1.026-1.959-.467.153-.84.191-1.38.45l-1.12.515c-.373.172-.746.335-1.12.535-.205.105-.407.217-.606.335a5.28 5.28 0 0 0-.634.42c-.43.325-.896.736-1.418 1.252a9.955 9.955 0 0 0-1.4 1.127c-.456.44-.913.918-1.38 1.386-.233.23-.447.477-.662.716a19.54 19.54 0 0 1-.662.688c-.224.22-.448.42-.662.612-.224.19-.457.353-.672.506a6.66 6.66 0 0 0-1.008 1.28 8.76 8.76 0 0 1-.625 1.138 26.67 26.67 0 0 1-.774 1.232l-.82 1.242c-.262.42-.486.841-.681 1.233a10.55 10.55 0 0 1-.896 1.548 5.468 5.468 0 0 1-.914 1.08l-.466 1.309c-.075.21-.131.43-.196.64l-.187.63-.373 1.242-.168.593-.15.602c-.128.55-.287 1.092-.475 1.624-.095.266-.194.53-.298.793-.29.831-.633 1.642-1.027 2.427l-.373.822-.4.831c-.318.64-.672 1.261-.906 1.987l-.7 2.007-.596 2.064-.28 1.032-.261 1.05-.243 1.042c-.074.344-.168.698-.233 1.051l-.466 2.513a79.293 79.293 0 0 0-.345 2.551c-.019.191-.047.382-.047.593v.602c.007.382-.009.765-.047 1.146a9.96 9.96 0 0 0-.046 3.22c.046.306.065 1.051.037 1.29-.215 1.452.047 2.742.252 3.927.14.898.224 1.624.317 2.58l.177 1.949c.066.64.177 1.29.261 1.94.159 1.299.448 2.58.71 3.87.065.381.186.773.289 1.165l.326 1.166c.112.382.214.783.345 1.156l.383 1.146.354 1.118c.065.191.112.382.177.554l.187.554c.261.736.532 1.481.84 2.255l.746 1.606.373.755.373.716c.474.838.985 1.654 1.53 2.446.458.625.967 1.21 1.52 1.749.384.41.862.715 1.39.888.187.058.448.22.7.42 1.026.813 1.1.21.82-.955-.074-.296-.214-.678-.326-1.022Zm48.095 27.269a22.165 22.165 0 0 0-1.381-.2 34.932 34.932 0 0 0-1.511-.201 42.372 42.372 0 0 1-9.365-2.102 44.566 44.566 0 0 0-2.006-.708l-.252-.076a15.223 15.223 0 0 0-.746-.267l-.97-.287-.858-.21-.849-.249a65.875 65.875 0 0 0-1.688-.477 45.658 45.658 0 0 0-1.623-.478c-.532-.153-1.064-.258-1.549-.391-2.145-.526-3.171-.221-2.341.936.364.506.82 1.022 1.38 1.567a23.76 23.76 0 0 0 2.603 1.968l.643.372c.439.249.905.497 1.4.756.242.114.485.257.746.362l.802.344 1.698.688a81.58 81.58 0 0 0 2.612.822c.867.22 1.735.383 2.574.544.42.077.84.116 1.25.154.599.049 1.2.075 1.8.076h.28l.299-.019c.373-.019.746-.067 1.119-.115.51-.069 1.024-.113 1.54-.133l.559-.058a33.34 33.34 0 0 0 1.865-.182l.41-.056.383-.087a9.19 9.19 0 0 0 .7-.181c.858-.258 1.399-.573 1.53-.994.056-.163.867-.353 1.37-.573a13.532 13.532 0 0 0-1.156-.277 16.68 16.68 0 0 0-1.268-.268Z"/></mask><path fill="#fff" stroke="#fff" stroke-width="2" d="M123.991 62.18a41.674 41.674 0 0 0-.018-1.06 20.615 20.615 0 0 0-.075-1.051c-.019-.344-.093-.688-.159-1.032-.078-.411-.14-.826-.187-1.242-.064-.44-.102-.889-.168-1.328a44.072 44.072 0 0 0-2.742-11.122 30.792 30.792 0 0 1-.792-2.083c-.122-.373-.28-.736-.411-1.099l-.411-1.089a62.805 62.805 0 0 0-4.495-9.42l-.999-1.616-.251-.401-.121-.2-.14-.21-.551-.784-1.082-1.567-1.166-1.52-.569-.764-.606-.726-1.213-1.471c-.205-.249-.429-.478-.634-.708l-.634-.707c-.42-.468-.831-.955-1.278-1.404a11.47 11.47 0 0 0-.7-.64l-.634-.564c-.215-.182-.42-.373-.653-.545l-1.306-1.05-.672-.517c-.214-.172-.448-.325-.68-.497l-1.363-.974-.344-.239c-.113-.086-.234-.153-.355-.23l-.7-.458-1.418-.889-1.445-.83c-.485-.259-.961-.555-1.456-.794a53.267 53.267 0 0 0-10.195-3.975l-1.427-.363-.71-.181-.354-.096-.373-.067-1.427-.286-.718-.134c-.233-.057-.476-.077-.718-.115l-1.222-.19-.597-.096a4.2 4.2 0 0 0-.56-.039 21.36 21.36 0 0 1-2.052-.153c-.224-.028-.439-.066-.672-.086a21.435 21.435 0 0 1-2.033-.315l-.681-.143-2.024-.363-.513-.096-.513-.057-1.036-.124-1.063-.134-1.054-.096-1.045-.095c-.345-.038-.7-.086-1.054-.096a62.768 62.768 0 0 0-2.164-.047c-.373-.01-.746.028-1.12.047l-1.175.096c-.84.067-1.623.095-2.462.19l-.98.106-.242.029-.243.038-.485.067-1.959.306c-.97.185-1.935.404-2.891.659-.93.325-1.862.637-2.799.936l-1.856.717-.933.372-.895.43a35.54 35.54 0 0 0-1.8.918 25.031 25.031 0 0 0-3.47 2.388c-.476.383-.905.765-1.279 1.147-.373.41-.69.803-.97 1.194-1.1 1.548-1.119 2.274.747 1.787.447-.115.904-.248 1.39-.41l.373-.135.354-.114c.819-.26 1.617-.582 2.388-.965a23.87 23.87 0 0 0 1.978-1.003c.289-.172.597-.316.904-.46l.915-.448.923-.44.942-.382.952-.382.475-.191.243-.096.233-.095 1.94-.65.355-.115.373-.095.746-.191c.46-.104.923-.187 1.39-.249a20.14 20.14 0 0 0 2.733-.478c.914-.162 1.828-.363 2.742-.506l2.36-.315a63.743 63.743 0 0 1 2.37-.2c2.397-.096 4.803.018 7.163.18l.859.048c.289 0 .578.058.858.086l1.679.21c.28.03.56.096.84.154l.82.162c.541.124 1.092.22 1.642.392l1.399.401c.233.067.466.115.7.191l.7.23c.7.23 1.402.453 2.107.668l.7.23c2.192.697 4.319 1.595 6.409 2.56 1.025.516 2.079.994 3.068 1.586l.746.42c.262.154.513.278.756.44l1.464.917c1.484.966 2.864 2.103 4.32 2.81.12.067.28.172.447.305l.261.192.242.21 1.586 1.27c.281.201.532.44.784.66l.774.669.756.688.718.716.699.726c.224.249.467.478.663.746l.979 1.184.485.593c.168.19.318.401.467.592l.933 1.204c.168.2.326.401.466.602l.448.621.885 1.242.225.296.056.077v.019h.009l.103.162.438.679.886 1.366c.065.105.158.23.215.334l.186.316.364.64.485.86.252.43.233.449.933 1.825c.158.306.29.621.429.936l.429.927.42.937.383.955.4.994.196.496.187.507.69 2.026c.215.687.401 1.375.606 2.063.215.688.355 1.395.532 2.093l.252 1.05c.046.173.075.345.112.526l.093.526.206 1.06c.064.354.149.707.186 1.061l.308 2.14.037.268.028.267.047.535.111 1.08c.085.717.094 1.462.113 2.217l.008 1.118c0 .382-.036.764-.055 1.137l-.066 1.118-.046.554-.065.544c-.095.709-.198 1.416-.308 2.122-.532 2.857-1.054 5.714-1.577 8.38a58.787 58.787 0 0 1-2.845 9.879l-.672 1.624-.344.812-.373.793-.746 1.596-.822 1.548-.41.783c-.139.258-.298.507-.447.765l-.896 1.51a5.66 5.66 0 0 1-.243.382l-.243.353-.484.745c-.326.478-.644.985-.998 1.453-.243.325-.523.64-.774.965-.234.306-.457.611-.7.907l-.737.861c-.495.582-.97 1.174-1.492 1.719l-.878.956-.438.478c-.14.162-.298.305-.447.468l-.905.907-.457.468-.224.23-.242.21a72.284 72.284 0 0 1-1.97 1.72 43.663 43.663 0 0 1-2.2 1.576l-1.642 1.004-.849.535-.41.248-.411.239c-.541.324-1.074.665-1.594 1.022-.532.344-1.074.689-1.568 1.052-.345.248-.915.506-1.372.735l-1.697.888-.429.221-.438.21-.877.42c-1.157.592-2.313 1.118-3.349 1.816.746.047 1.231.267 2.09.095.55-.095 1.063-.248 1.585-.363l1.54-.343c.251-.049.503-.125.746-.192l.755-.21 1.53-.44a38.053 38.053 0 0 0 2.77-1.079c.95-.464 1.886-.954 2.808-1.472.448-.277.905-.554 1.353-.85l.68-.43.336-.23.085-.048.064-.047.038-.029.168-.124 1.325-.984c.438-.334.886-.65 1.305-1.013l1.866-1.605 1.8-1.71.439-.43.429-.45.839-.898.858-.897.812-.938c1.026-1.136 1.969-2.359 2.929-3.563l1.353-1.882.336-.478.307-.478.625-.974c.233-.364.467-.727.681-1.109l.625-1.137.615-1.137.57-1.165c.372-.774.783-1.53 1.137-2.332l.589-1.175.298-.593.289-.592c.168-.334.298-.802.429-1.204 1.063-3.382 2.192-6.373 3.311-9.316.093-.22.225-.726.401-1.376l.271-1.05.242-1.176.234-1.175.093-.564.084-.525c.071-.483.133-.967.186-1.453.187-2.054.243-4.137.299-6.2l.009-.545v-.535h-.009Zm-14.309-30.47c-.009-.019-.019-.028 0 0ZM15.89 93.788c-.094-.354-.159-.669-.121-.803.093-.277-.01-.697-.187-1.175-.187-.487-.466-1.022-.69-1.577a96.122 96.122 0 0 0-.84-1.92l-.093-.239-.093-.248-.205-.488-.402-.974-.41-.975a46.583 46.583 0 0 0-.383-.993l-.4-.994c-.14-.335-.28-.66-.411-1.004l-.728-1.91a12.17 12.17 0 0 1-.307-.994 25.881 25.881 0 0 1-.27-.984l-.187-.717a9.944 9.944 0 0 1-.178-.717l-.336-1.433-.177-.716-.093-.354-.075-.363-.298-1.433c-.224-.946-.355-1.911-.504-2.876l-.112-.736-.084-.736a71.23 71.23 0 0 1-.121-1.49 75.364 75.364 0 0 1-.037-10.93c.028-.383.046-.765.093-1.147.065-.383.121-.755.205-1.09l.317-1.404c.103-.468.224-.917.308-1.367.093-.458.168-.907.224-1.356.056-.44.121-.88.14-1.328.224-.832.401-1.653.634-2.456l.299-1.194.14-.593.168-.583.652-2.33.756-2.313c.039-.11.079-.218.121-.325l.131-.287c.087-.181.18-.36.28-.535.19-.339.392-.67.606-.993 1.586-2.36 3.218-5.103 4.906-7.625a44.6 44.6 0 0 1 6.66-8.064c.364-.335.7-.67 1.027-.985a26.474 26.474 0 0 0 1.893-1.863c.299-.315.588-.62.859-.936.354-.401.774-.841 1.175-1.27.41-.412.82-.803 1.11-1.157 1.352-1.653.84-2.58-1.026-1.959-.467.153-.84.191-1.38.45l-1.12.515c-.373.172-.746.335-1.12.535-.205.105-.407.217-.606.335a5.28 5.28 0 0 0-.634.42c-.43.325-.896.736-1.418 1.252a9.955 9.955 0 0 0-1.4 1.127c-.456.44-.913.918-1.38 1.386-.233.23-.447.477-.662.716a19.54 19.54 0 0 1-.662.688c-.224.22-.448.42-.662.612-.224.19-.457.353-.672.506a6.66 6.66 0 0 0-1.008 1.28 8.76 8.76 0 0 1-.625 1.138 26.67 26.67 0 0 1-.774 1.232l-.82 1.242c-.262.42-.486.841-.681 1.233a10.55 10.55 0 0 1-.896 1.548 5.468 5.468 0 0 1-.914 1.08l-.466 1.309c-.075.21-.131.43-.196.64l-.187.63-.373 1.242-.168.593-.15.602c-.128.55-.287 1.092-.475 1.624-.095.266-.194.53-.298.793-.29.831-.633 1.642-1.027 2.427l-.373.822-.4.831c-.318.64-.672 1.261-.906 1.987l-.7 2.007-.596 2.064-.28 1.032-.261 1.05-.243 1.042c-.074.344-.168.698-.233 1.051l-.466 2.513a79.293 79.293 0 0 0-.345 2.551c-.019.191-.047.382-.047.593v.602c.007.382-.009.765-.047 1.146a9.96 9.96 0 0 0-.046 3.22c.046.306.065 1.051.037 1.29-.215 1.452.047 2.742.252 3.927.14.898.224 1.624.317 2.58l.177 1.949c.066.64.177 1.29.261 1.94.159 1.299.448 2.58.71 3.87.065.381.186.773.289 1.165l.326 1.166c.112.382.214.783.345 1.156l.383 1.146.354 1.118c.065.191.112.382.177.554l.187.554c.261.736.532 1.481.84 2.255l.746 1.606.373.755.373.716c.474.838.985 1.654 1.53 2.446.458.625.967 1.21 1.52 1.749.384.41.862.715 1.39.888.187.058.448.22.7.42 1.026.813 1.1.21.82-.955-.074-.296-.214-.678-.326-1.022Zm48.095 27.269a22.165 22.165 0 0 0-1.381-.2 34.932 34.932 0 0 0-1.511-.201 42.372 42.372 0 0 1-9.365-2.102 44.566 44.566 0 0 0-2.006-.708l-.252-.076a15.223 15.223 0 0 0-.746-.267l-.97-.287-.858-.21-.849-.249a65.875 65.875 0 0 0-1.688-.477 45.658 45.658 0 0 0-1.623-.478c-.532-.153-1.064-.258-1.549-.391-2.145-.526-3.171-.221-2.341.936.364.506.82 1.022 1.38 1.567a23.76 23.76 0 0 0 2.603 1.968l.643.372c.439.249.905.497 1.4.756.242.114.485.257.746.362l.802.344 1.698.688a81.58 81.58 0 0 0 2.612.822c.867.22 1.735.383 2.574.544.42.077.84.116 1.25.154.599.049 1.2.075 1.8.076h.28l.299-.019c.373-.019.746-.067 1.119-.115.51-.069 1.024-.113 1.54-.133l.559-.058a33.34 33.34 0 0 0 1.865-.182l.41-.056.383-.087a9.19 9.19 0 0 0 .7-.181c.858-.258 1.399-.573 1.53-.994.056-.163.867-.353 1.37-.573a13.532 13.532 0 0 0-1.156-.277 16.68 16.68 0 0 0-1.268-.268Z" mask="url(#b)"/><path fill="#fff" stroke="#311616" d="M94 88.857V38.143a10.001 10.001 0 0 0-.767-3.862 9.745 9.745 0 0 0-2.19-3.23 9.4 9.4 0 0 0-3.138-2.266A9.145 9.145 0 0 0 84.151 28H35v10.143h9.83L35 48.286V99h49.151a9.18 9.18 0 0 0 3.75-.78 9.432 9.432 0 0 0 3.143-2.252 9.738 9.738 0 0 0 2.192-3.24 9.998 9.998 0 0 0 .764-3.87Zm-11.245 0H54.661l-8.416 8.702V38.143h36.51v50.714Z"/></svg>